999
Inkscape export via OpenSCAD DXF Export
  0
SECTION
  2
HEADER
  9
$ACADVER
  1
AC1014
  9
$HANDSEED
  5
FFFF
  9
$MEASUREMENT
 70
     1
  0
ENDSEC
  0
SECTION
  2
TABLES
  0
TABLE
  2
VPORT
  5
8
330
0
100
AcDbSymbolTable
 70
     4
  0
VPORT
  5
2E
330
8
100
AcDbSymbolTableRecord
100
AcDbViewportTableRecord
  2
*ACTIVE
 70
     0
 10
0.0
 20
0.0
 11
1.0
 21
1.0
 12
210.0
 22
148.5
 13
0.0
 23
0.0
 14
10.0
 24
10.0
 15
10.0
 25
10.0
 16
0.0
 26
0.0
 36
1.0
 17
0.0
 27
0.0
 37
0.0
 40
341.0
 41
1.24
 42
50.0
 43
0.0
 44
0.0
 50
0.0
 51
0.0
 71
     0
 72
   100
 73
     1
 74
     3
 75
     0
 76
     0
 77
     0
 78
     0
  0
ENDTAB
  0
TABLE
  2
LTYPE
  5
5
330
0
100
AcDbSymbolTable
 70
     1
  0
LTYPE
  5
14
330
5
100
AcDbSymbolTableRecord
100
AcDbLinetypeTableRecord
  2
BYBLOCK
 70
     0
  3

 72
    65
 73
     0
 40
0.0
  0
LTYPE
  5
15
330
5
100
AcDbSymbolTableRecord
100
AcDbLinetypeTableRecord
  2
BYLAYER
 70
     0
  3

 72
    65
 73
     0
 40
0.0
  0
LTYPE
  5
16
330
5
100
AcDbSymbolTableRecord
100
AcDbLinetypeTableRecord
  2
CONTINUOUS
 70
     0
  3
Solid line
 72
    65
 73
     0
 40
0.0
  0
ENDTAB
  0
TABLE
0
TABLE
2
LAYER
5
2
330
0
100
AcDbSymbolTable
70
1
0
LAYER
5
10
330
2
100
AcDbSymbolTableRecord
100
AcDbLayerTableRecord
2
Layer_1
70
0
62
7
6
CONTINUOUS
0
ENDTAB
0
ENDSEC
  0
ENDTAB
  0
TABLE
  2
STYLE
  5
3
330
0
100
AcDbSymbolTable
 70
     1
  0
STYLE
  5
11
330
3
100
AcDbSymbolTableRecord
100
AcDbTextStyleTableRecord
  2
STANDARD
 70
     0
 40
0.0
 41
1.0
 50
0.0
 71
     0
 42
2.5
  3
txt
  4

  0
ENDTAB
  0
TABLE
  2
VIEW
  5
6
330
0
100
AcDbSymbolTable
 70
     0
  0
ENDTAB
  0
TABLE
  2
UCS
  5
7
330
0
100
AcDbSymbolTable
 70
     0
  0
ENDTAB
  0
TABLE
  2
APPID
  5
9
330
0
100
AcDbSymbolTable
 70
     2
  0
APPID
  5
12
330
9
100
AcDbSymbolTableRecord
100
AcDbRegAppTableRecord
  2
ACAD
 70
     0
  0
ENDTAB
  0
TABLE
  2
DIMSTYLE
  5
A
330
0
100
AcDbSymbolTable
 70
     1
  0
DIMSTYLE
105
27
330
A
100
AcDbSymbolTableRecord
100
AcDbDimStyleTableRecord
  2
ISO-25
 70
     0
  3

  4

  5

  6

  7

 40
1.0
 41
2.5
 42
0.625
 43
3.75
 44
1.25
 45
0.0
 46
0.0
 47
0.0
 48
0.0
140
2.5
141
2.5
142
0.0
143
0.03937007874016
144
1.0
145
0.0
146
1.0
147
0.625
 71
     0
 72
     0
 73
     0
 74
     0
 75
     0
 76
     0
 77
     1
 78
     8
170
     0
171
     3
172
     1
173
     0
174
     0
175
     0
176
     0
177
     0
178
     0
270
     2
271
     2
272
     2
273
     2
274
     3
340
11
275
     0
280
     0
281
     0
282
     0
283
     0
284
     8
285
     0
286
     0
287
     3
288
     0
  0
ENDTAB
  0
TABLE
  2
BLOCK_RECORD
  5
1
330
0
100
AcDbSymbolTable
 70
     1
  0
BLOCK_RECORD
  5
1F
330
1
100
AcDbSymbolTableRecord
100
AcDbBlockTableRecord
  2
*MODEL_SPACE
  0
BLOCK_RECORD
  5
1B
330
1
100
AcDbSymbolTableRecord
100
AcDbBlockTableRecord
  2
*PAPER_SPACE
  0
ENDTAB
  0
ENDSEC
  0
SECTION
  2
BLOCKS
  0
BLOCK
  5
20
330
1F
100
AcDbEntity
  8
0
100
AcDbBlockBegin
  2
*MODEL_SPACE
 70
     0
 10
0.0
 20
0.0
 30
0.0
  3
*MODEL_SPACE
  1

  0
ENDBLK
  5
21
330
1F
100
AcDbEntity
  8
0
100
AcDbBlockEnd
  0
BLOCK
  5
1C
330
1B
100
AcDbEntity
 67
     1
  8
0
100
AcDbBlockBegin
  2
*PAPER_SPACE
  1

  0
ENDBLK
  5
1D
330
1B
100
AcDbEntity
 67
     1
  8
0
100
AcDbBlockEnd
  0
ENDSEC
  0
SECTION
  2
ENTITIES
0
DIMENSION
5
83
100
AcDbEntity
62
256
370
-1
6
ByLayer
1
total_width
3
Standard
70
0
71
5
72
1
41
1.0
100
AcDbAlignedDimension
13
0.858793
23
0.000000
33
0.0
14
58.092021
24
0.000000
34
0.0
50
0.000000
100
AcDbRotatedDimension
0
DIMENSION
5
83
100
AcDbEntity
62
256
370
-1
6
ByLayer
1
total_minx
3
Standard
70
0
71
5
72
1
41
1.0
100
AcDbAlignedDimension
13
0.858793
23
0.000000
33
0.0
14
0.000000
24
0.000000
34
0.0
50
0.000000
100
AcDbRotatedDimension
0
DIMENSION
5
83
100
AcDbEntity
62
256
370
-1
6
ByLayer
1
total_maxx
3
Standard
70
0
71
5
72
1
41
1.0
100
AcDbAlignedDimension
13
0.000000
23
0.000000
33
0.0
14
58.092021
24
0.000000
34
0.0
50
0.000000
100
AcDbRotatedDimension
0
DIMENSION
5
83
100
AcDbEntity
62
256
370
-1
6
ByLayer
1
total_height
3
Standard
70
0
71
5
72
1
41
1.0
100
AcDbAlignedDimension
13
0.000000
23
-1.717974
33
0.0
14
0.000000
24
200.974345
34
0.0
50
90.000000
100
AcDbRotatedDimension
0
DIMENSION
5
83
100
AcDbEntity
62
256
370
-1
6
ByLayer
1
total_miny
3
Standard
70
0
71
5
72
1
41
1.0
100
AcDbAlignedDimension
13
-1.717974
23
0.000000
33
0.0
14
0.000000
24
0.000000
34
0.0
50
0.000000
100
AcDbRotatedDimension
0
DIMENSION
5
83
100
AcDbEntity
62
256
370
-1
6
ByLayer
1
total_maxy
3
Standard
70
0
71
5
72
1
41
1.0
100
AcDbAlignedDimension
13
0.000000
23
0.000000
33
0.0
14
200.974345
24
0.000000
34
0.0
50
0.000000
100
AcDbRotatedDimension
0
DIMENSION
8
Layer_1
5
83
100
AcDbEntity
62
256
370
-1
6
ByLayer
1
Layer_1_width
3
Standard
70
0
71
5
72
1
41
1.0
100
AcDbAlignedDimension
13
0.858793
23
0.000000
33
0.0
14
58.092021
24
0.000000
34
0.0
50
0.000000
100
AcDbRotatedDimension
0
DIMENSION
8
Layer_1
5
83
100
AcDbEntity
62
256
370
-1
6
ByLayer
1
Layer_1_minx
3
Standard
70
0
71
5
72
1
41
1.0
100
AcDbAlignedDimension
13
0.858793
23
0.000000
33
0.0
14
0.000000
24
0.000000
34
0.0
50
0.000000
100
AcDbRotatedDimension
0
DIMENSION
8
Layer_1
5
83
100
AcDbEntity
62
256
370
-1
6
ByLayer
1
Layer_1_maxx
3
Standard
70
0
71
5
72
1
41
1.0
100
AcDbAlignedDimension
13
0.000000
23
0.000000
33
0.0
14
58.092021
24
0.000000
34
0.0
50
0.000000
100
AcDbRotatedDimension
0
DIMENSION
8
Layer_1
5
83
100
AcDbEntity
62
256
370
-1
6
ByLayer
1
Layer_1_height
3
Standard
70
0
71
5
72
1
41
1.0
100
AcDbAlignedDimension
13
0.000000
23
-1.717974
33
0.0
14
0.000000
24
200.974345
34
0.0
50
90.000000
100
AcDbRotatedDimension
0
DIMENSION
8
Layer_1
5
83
100
AcDbEntity
62
256
370
-1
6
ByLayer
1
Layer_1_miny
3
Standard
70
0
71
5
72
1
41
1.0
100
AcDbAlignedDimension
13
-1.717974
23
0.000000
33
0.0
14
0.000000
24
0.000000
34
0.0
50
0.000000
100
AcDbRotatedDimension
0
DIMENSION
8
Layer_1
5
83
100
AcDbEntity
62
256
370
-1
6
ByLayer
1
Layer_1_maxy
3
Standard
70
0
71
5
72
1
41
1.0
100
AcDbAlignedDimension
13
0.000000
23
0.000000
33
0.0
14
200.974345
24
0.000000
34
0.0
50
0.000000
100
AcDbRotatedDimension
62
0
0
LWPOLYLINE
100
AcDbPolyline
8
Layer_1
90
97
70
0
10
0.858793
20
200.974345
30
0.0
10
0.858793
20
101.533455
30
0.0
10
0.858793
20
2.092015
30
0.0
10
2.065404
20
2.076041
30
0.0
10
2.961465
20
2.019944
30
0.0
10
2.637014
20
1.805946
30
0.0
10
1.430404
20
1.659873
30
0.0
10
1.110049
20
1.683019
30
0.0
10
0.939229
20
1.507578
30
0.0
10
0.858793
20
0.024968
30
0.0
10
0.915459
20
-1.205951
30
0.0
10
1.051719
20
-1.717974
30
0.0
10
1.187384
20
-1.479250
30
0.0
10
1.242439
20
-0.905482
30
0.0
10
1.389122
20
-0.194584
30
0.0
10
2.128793
20
0.113163
30
0.0
10
8.117692
20
0.332906
30
0.0
10
21.268090
20
0.571774
30
0.0
10
39.761363
20
0.974161
30
0.0
10
39.920767
20
1.241227
30
0.0
10
39.962006
20
1.672000
30
0.0
10
39.946569
20
3.388484
30
0.0
10
39.974678
20
4.557612
30
0.0
10
42.324508
20
4.701478
30
0.0
10
44.275902
20
4.923091
30
0.0
10
46.147290
20
5.340065
30
0.0
10
47.927476
20
5.946327
30
0.0
10
49.605267
20
6.735802
30
0.0
10
51.169470
20
7.702415
30
0.0
10
52.608890
20
8.840094
30
0.0
10
53.912333
20
10.142763
30
0.0
10
55.068605
20
11.604348
30
0.0
10
56.470672
20
13.900920
30
0.0
10
57.408292
20
16.189384
30
0.0
10
57.931922
20
18.633278
30
0.0
10
58.092021
20
21.396136
30
0.0
10
58.048600
20
22.968910
30
0.0
10
57.872244
20
24.471794
30
0.0
10
56.809894
20
29.143466
30
0.0
10
55.214006
20
35.821560
30
0.0
10
53.752502
20
42.621179
30
0.0
10
52.435258
20
49.480047
30
0.0
10
51.272153
20
56.335887
30
0.0
10
50.273064
20
63.126425
30
0.0
10
49.447867
20
69.789384
30
0.0
10
48.806441
20
76.262490
30
0.0
10
48.358662
20
82.483466
30
0.0
10
47.901513
20
88.804480
30
0.0
10
47.655353
20
90.126738
30
0.0
10
47.313006
20
90.902728
30
0.0
10
46.758761
20
91.632574
30
0.0
10
45.941848
20
92.202441
30
0.0
10
44.543960
20
92.776744
30
0.0
10
42.246787
20
93.519899
30
0.0
10
38.166995
20
94.857053
30
0.0
10
37.468307
20
95.221167
30
0.0
10
37.171195
20
95.582545
30
0.0
10
36.979400
20
98.257974
30
0.0
10
36.924111
20
103.566010
30
0.0
10
37.000218
20
108.896540
30
0.0
10
37.202615
20
111.639449
30
0.0
10
37.684535
20
112.275116
30
0.0
10
38.664743
20
112.868516
30
0.0
10
40.396380
20
113.537505
30
0.0
10
43.132589
20
114.399935
30
0.0
10
46.158707
20
115.403545
30
0.0
10
47.531288
20
116.057990
30
0.0
10
47.759480
20
116.702749
30
0.0
10
47.862016
20
117.647141
30
0.0
10
47.979426
20
119.821136
30
0.0
10
48.364174
20
125.155246
30
0.0
10
48.840714
20
131.234036
30
0.0
10
49.492919
20
137.529974
30
0.0
10
51.289263
20
150.553703
30
0.0
10
53.683092
20
163.787251
30
0.0
10
56.604292
20
176.791440
30
0.0
10
57.780484
20
181.975401
30
0.0
10
57.967065
20
183.548337
30
0.0
10
58.008788
20
185.174322
30
0.0
10
57.823491
20
187.955847
30
0.0
10
57.251457
20
190.488228
30
0.0
10
56.268473
20
192.847570
30
0.0
10
54.850324
20
195.109977
30
0.0
10
53.816619
20
196.346705
30
0.0
10
52.545246
20
197.615016
30
0.0
10
51.209742
20
198.754597
30
0.0
10
49.983644
20
199.605137
30
0.0
10
48.864678
20
200.479916
30
0.0
10
49.443145
20
200.659954
30
0.0
10
50.833618
20
200.785289
30
0.0
10
50.899403
20
200.794373
30
0.0
10
50.698958
20
200.803724
30
0.0
10
49.548604
20
200.822948
30
0.0
10
44.594637
20
200.861493
30
0.0
10
26.830404
20
200.923082
30
0.0
10
0.858793
20
200.974345
30
0.0
10
0.858793
20
200.974345
30
0.0
62
0
0
LWPOLYLINE
100
AcDbPolyline
8
Layer_1
90
8
70
0
10
2.128793
20
5.109368
30
0.0
10
2.573624
20
5.061410
30
0.0
10
2.626243
20
4.979298
30
0.0
10
2.128793
20
4.945103
30
0.0
10
1.631619
20
4.979298
30
0.0
10
1.684514
20
5.061410
30
0.0
10
2.128793
20
5.109368
30
0.0
10
2.128793
20
5.109368
30
0.0
  0
ENDSEC
  0
SECTION
  2
OBJECTS
  0
DICTIONARY
  5
C
330
0
100
AcDbDictionary
  3
ACAD_GROUP
350
D
  3
ACAD_MLINESTYLE
350
17
  0
DICTIONARY
  5
D
330
C
100
AcDbDictionary
  0
DICTIONARY
  5
1A
330
C
100
AcDbDictionary
  0
DICTIONARY
  5
17
330
C
100
AcDbDictionary
  3
STANDARD
350
18
  0
DICTIONARY
  5
19
330
C
100
AcDbDictionary
  0
ENDSEC
  0
EOF
